<?xml version="1.0" encoding="UTF-8"?>
<svg version="1.1" xmlns="http://www.w3.org/2000/svg" width="64" height="64">
<path d="M0 0 C5.2754138 0.40580106 7.47268449 1.10778979 11 5 C13.1381966 5.7872678 13.1381966 5.7872678 15 6 C15 5.34 15 4.68 15 4 C20.02125926 3.22083908 23.97703996 2.86983399 29 4 C29 7 29 7 27.5 8.6875 C27.005 9.120625 26.51 9.55375 26 10 C27.55847656 9.91298828 27.55847656 9.91298828 29.1484375 9.82421875 C38.8367015 9.44389914 46.11711696 9.96118279 53.796875 16.5390625 C59.14807409 22.12868135 62.16192589 29.34642479 62.4375 37.0625 C62.03450028 45.10990074 59.68370296 51.35581813 54.05859375 57.203125 C46.91583026 63.43779522 40.02135581 64.83650355 30.625 64.4765625 C22.40026087 63.39529292 16.53285546 59.62068353 11.40625 53.1640625 C7.12816983 46.58057247 6.30647424 39.72214258 7 32 C7.30152759 30.65911596 7.62483016 29.32217112 8 28 C6.68 28 5.36 28 4 28 C4.020625 27.2575 4.04125 26.515 4.0625 25.75 C4.11253087 23.08608477 4.11253087 23.08608477 3.4375 20.9375 C2.91957523 18.64383315 3.2883622 17.21398425 4 15 C4.66 15 5.32 15 6 15 C5.66924404 11.2514325 4.91657919 9.90030196 2.4375 6.9375 C0 4 0 4 0 0 Z M23 10 C23.33 10.66 23.66 11.32 24 12 C24.33 11.34 24.66 10.68 25 10 C24.34 10 23.68 10 23 10 Z M19 12 C19.33 12.66 19.66 13.32 20 14 C20.66 13.34 21.32 12.68 22 12 C21.01 12 20.02 12 19 12 Z M8 26 C9 28 9 28 9 28 Z " fill="#6FB0DD" transform="translate(1,0)"/>
<path d="M0 0 C7.81890747 4.6420711 12.11968305 11.19003263 14.4375 19.9375 C15.47188228 27.51522184 14.31994718 34.86648818 9.85546875 41.171875 C6.84827471 44.7621633 3.85457083 48.14679561 -0.5625 49.9375 C-2.70703125 49.49609375 -2.70703125 49.49609375 -4.5625 48.9375 C-4.44390625 48.36902344 -4.3253125 47.80054688 -4.203125 47.21484375 C-3.38578342 42.3189677 -3.22381331 38.98810177 -6.15234375 34.6796875 C-12.23399858 27.16606408 -19.40174586 22.05157259 -27.5625 16.9375 C-27.2325 15.2875 -26.9025 13.6375 -26.5625 11.9375 C-25.5725 11.9375 -24.5825 11.9375 -23.5625 11.9375 C-23.459375 11.298125 -23.35625 10.65875 -23.25 10 C-23.023125 9.319375 -22.79625 8.63875 -22.5625 7.9375 C-21.5725 7.6075 -20.5825 7.2775 -19.5625 6.9375 C-19.2325 5.9475 -18.9025 4.9575 -18.5625 3.9375 C-21.2025 4.2675 -23.8425 4.5975 -26.5625 4.9375 C-26.8925 3.6175 -27.2225 2.2975 -27.5625 0.9375 C-19.42662551 -3.82496312 -8.51728889 -3.9102099 0 0 Z " fill="#E1EBEE" transform="translate(48.5625,12.0625)"/>
<path d="M0 0 C10.04220383 6.36822682 18.76920944 14.55197847 23 26 C23.77919953 31.42147276 22.98188017 35.3141883 20 40 C17.8125 42.375 17.8125 42.375 16 44 C15.34 43.67 14.68 43.34 14 43 C14.11859375 42.43152344 14.2371875 41.86304688 14.359375 41.27734375 C15.17671658 36.3814677 15.33868669 33.05060177 12.41015625 28.7421875 C6.32850142 21.22856408 -0.83924586 16.11407259 -9 11 C-8.67 9.35 -8.34 7.7 -8 6 C-7.01 6 -6.02 6 -5 6 C-4.9175 5.38125 -4.835 4.7625 -4.75 4.125 C-4 2 -4 2 -1.9375 0.75 C-1.298125 0.5025 -0.65875 0.255 0 0 Z " fill="#FAD63F" transform="translate(30,18)"/>
<path d="M0 0 C5.2754138 0.40580106 7.47268449 1.10778979 11 5 C13.1381966 5.7872678 13.1381966 5.7872678 15 6 C15 5.34 15 4.68 15 4 C20.02125926 3.22083908 23.97703996 2.86983399 29 4 C29 4.99 29 5.98 29 7 C28.01 7.495 28.01 7.495 27 8 C27 8.99 27 9.98 27 11 C25.68 10.67 24.36 10.34 23 10 C22.67 10.99 22.34 11.98 22 13 C21.01 12.67 20.02 12.34 19 12 C19.66 13.32 20.32 14.64 21 16 C23.64 16 26.28 16 29 16 C28.6875 17.9375 28.6875 17.9375 28 20 C27.01 20.33 26.02 20.66 25 21 C24.67 21.99 24.34 22.98 24 24 C23.01 24 22.02 24 21 24 C20.67 25.65 20.34 27.3 20 29 C18.68 28.67 17.36 28.34 16 28 C16 25.36 16 22.72 16 20 C15.01 20 14.02 20 13 20 C13 20.66 13 21.32 13 22 C12.34 22 11.68 22 11 22 C11 22.99 11 23.98 11 25 C9.75 26.6875 9.75 26.6875 8 28 C6.68 28 5.36 28 4 28 C4.020625 27.2575 4.04125 26.515 4.0625 25.75 C4.11253087 23.08608477 4.11253087 23.08608477 3.4375 20.9375 C2.91957523 18.64383315 3.2883622 17.21398425 4 15 C4.66 15 5.32 15 6 15 C5.66924404 11.2514325 4.91657919 9.90030196 2.4375 6.9375 C0 4 0 4 0 0 Z " fill="#5B6064" transform="translate(1,0)"/>
<path d="M0 0 C3.56384976 2.07545327 6.08823095 4.27389015 8.3125 7.8125 C5.8375 7.3175 5.8375 7.3175 3.3125 6.8125 C3.3125 6.1525 3.3125 5.4925 3.3125 4.8125 C1.0025 4.8125 -1.3075 4.8125 -3.6875 4.8125 C-3.6875 5.8025 -3.6875 6.7925 -3.6875 7.8125 C-5.6875 9.14583333 -7.6875 10.47916667 -9.6875 11.8125 C-13.12502007 10.2847133 -15.87703688 8.31068944 -18.6875 5.8125 C-18.6875 5.1525 -18.6875 4.4925 -18.6875 3.8125 C-21.3275 4.1425 -23.9675 4.4725 -26.6875 4.8125 C-27.0175 3.4925 -27.3475 2.1725 -27.6875 0.8125 C-19.47468309 -3.99500258 -8.55165619 -4.02206975 0 0 Z " fill="#73B1DE" transform="translate(48.6875,12.1875)"/>
<path d="M0 0 C3.02346601 -0.2519555 4.6402007 -0.20421041 7.3125 1.3125 C9 3 9 3 9 6 C11.475 6.99 11.475 6.99 14 8 C13.50819672 14.39344262 13.50819672 14.39344262 11.0625 17.3125 C10.381875 17.869375 9.70125 18.42625 9 19 C8.34 19.66 7.68 20.32 7 21 C2.05572827 14.83736905 -0.68790946 7.9109588 0 0 Z " fill="#E1EBF1" transform="translate(11,36)"/>
<path d="M0 0 C2 2 2 2 3 5 C3.99 5.33 4.98 5.66 6 6 C5.34 4.35 4.68 2.7 4 1 C4.99 1.33 5.98 1.66 7 2 C9.09392996 6.3835543 9.37703414 10.92533969 8.0625 15.5625 C5.65587717 21.66997395 1.42804115 26.21943649 -3.8125 30.0625 C-4.8953125 30.5265625 -4.8953125 30.5265625 -6 31 C-6.66 30.67 -7.32 30.34 -8 30 C-7.2575 29.195625 -6.515 28.39125 -5.75 27.5625 C-2.57338739 23.7469653 -0.7684402 19.60598288 1 15 C1.26296875 14.35417969 1.5259375 13.70835938 1.796875 13.04296875 C2.56834432 11.04501253 2.56834432 11.04501253 3 8 C1.71815438 5.25167846 1.71815438 5.25167846 0 3 C0 2.01 0 1.02 0 0 Z " fill="#7CB5E2" transform="translate(54,31)"/>
<path d="M0 0 C1.32 0.33 2.64 0.66 4 1 C3.52570343 5.26866909 0.96478822 7.10933148 -2 10 C-4.64690027 17.94070082 -1.5631064 25.99402868 1.55078125 33.37109375 C3.05485687 36.09951125 4.69645615 37.92239009 7 40 C2.70707016 39.25824106 1.05368887 37.38746515 -1.60546875 34.08203125 C-5.91459609 27.64851621 -6.76128799 20.58791966 -6 13 C-5.49080119 10.56280911 -4.82034571 8.35849392 -4 6 C-3.34 6 -2.68 6 -2 6 C-2 5.01 -2 4.02 -2 3 C-1.34 3 -0.68 3 0 3 C0 2.01 0 1.02 0 0 Z " fill="#73B2DF" transform="translate(14,19)"/>
<path d="M0 0 C3.46941546 0.45822468 6.67395049 0.89131683 10 2 C10 1.34 10 0.68 10 0 C13 1 13 1 14 2 C15.32 1.34 16.64 0.68 18 0 C20.25684543 5.36000789 21.36263859 9.1977825 21 15 C20.5359375 14.0409375 20.5359375 14.0409375 20.0625 13.0625 C19.1654837 11.06389179 19.1654837 11.06389179 18 10 C18 10.99 18 11.98 18 13 C16.125 12.8125 16.125 12.8125 14 12 C13.7525 11.21625 13.505 10.4325 13.25 9.625 C11.75370881 6.48278849 11.03339943 6.34557979 7.875 5.1875 C6.58908793 4.77335394 5.29886417 4.37153556 4 4 C4 3.34 4 2.68 4 2 C2.68 2 1.36 2 0 2 C0 1.34 0 0.68 0 0 Z " fill="#D2E4EF" transform="translate(42,24)"/>
<path d="M0 0 C1.26328125 0.11085938 2.5265625 0.22171875 3.828125 0.3359375 C4.79234375 0.43132813 5.7565625 0.52671875 6.75 0.625 C2.28763086 5.08736914 -4.25983875 5.11916416 -10.25 5.625 C-10.58 4.305 -10.91 2.985 -11.25 1.625 C-7.48564408 -0.86555871 -4.38382623 -0.40590984 0 0 Z " fill="#7BB2DA" transform="translate(32.25,11.375)"/>
<path d="M0 0 C1.32 0.33 2.64 0.66 4 1 C3.52570343 5.26866909 0.96478822 7.10933148 -2 10 C-2.77772405 12.33317216 -3.42415568 14.61435923 -4 17 C-5.125 15.4375 -5.125 15.4375 -6 13 C-5.125 9.25 -5.125 9.25 -4 6 C-3.34 6 -2.68 6 -2 6 C-2 5.01 -2 4.02 -2 3 C-1.34 3 -0.68 3 0 3 C0 2.01 0 1.02 0 0 Z " fill="#D0E1ED" transform="translate(14,19)"/>
<path d="M0 0 C0.33 0.66 0.66 1.32 1 2 C2.32 1.67 3.64 1.34 5 1 C3.5741914 4.45195767 1.90253666 6.1014256 -1.125 8.25 C-1.84945312 8.77078125 -2.57390625 9.2915625 -3.3203125 9.828125 C-3.87460937 10.21484375 -4.42890625 10.6015625 -5 11 C-5.66 10.67 -6.32 10.34 -7 10 C-6.21625 9.0925 -5.4325 8.185 -4.625 7.25 C-2.69947504 4.94809764 -1.17794259 2.78422793 0 0 Z " fill="#74B1D6" transform="translate(53,51)"/>
<path d="M0 0 C3.46941546 0.45822468 6.67395049 0.89131683 10 2 C10 1.34 10 0.68 10 0 C10.99 0.33 11.98 0.66 13 1 C12.67 2.32 12.34 3.64 12 5 C6.25 5.125 6.25 5.125 4 4 C4 3.34 4 2.68 4 2 C2.68 2 1.36 2 0 2 C0 1.34 0 0.68 0 0 Z " fill="#7EB8E1" transform="translate(42,24)"/>
<path d="M0 0 C3.77766788 1.25922263 5.25230318 3.12450332 8 6 C9.10156558 7.10676164 10.2057261 8.21094673 11.3125 9.3125 C12.199375 10.199375 13.08625 11.08625 14 12 C13.67 12.66 13.34 13.32 13 14 C12.24074219 13.36191406 11.48148438 12.72382812 10.69921875 12.06640625 C9.70535156 11.24011719 8.71148437 10.41382813 7.6875 9.5625 C6.70136719 8.73878906 5.71523438 7.91507813 4.69921875 7.06640625 C2.11899855 4.85878424 2.11899855 4.85878424 -1 4 C-0.67 2.68 -0.34 1.36 0 0 Z " fill="#E8B933" transform="translate(26,20)"/>
<path d="M0 0 C3.63 0 7.26 0 11 0 C8.04816899 2.95183101 5.04488053 3.08663988 1 4 C0.67 2.68 0.34 1.36 0 0 Z " fill="#E0EAF1" transform="translate(28,12)"/>
</svg>
